<?xml version="1.0" encoding="utf-8"?>
<!-- Generator: Adobe Illustrator 18.1.1, SVG Export Plug-In . SVG Version: 6.00 Build 0)  -->
<svg version="1.1" id="Layer_1" xmlns="http://www.w3.org/2000/svg" xmlns:xlink="http://www.w3.org/1999/xlink" x="0px" y="0px"
	 viewBox="0 0 420 420" enable-background="new 0 0 420 420" xml:space="preserve">
<g>
	<g>
		<path fill="#494435" d="M209.8,386.6l6.4-0.1l6.2-0.2c2.1-0.1,4.2-0.3,6.2-0.4c2.1-0.2,4.2-0.4,6.2-0.6c2.1-0.2,4.1-0.5,6.2-0.8
			c2.1-0.3,4.1-0.6,6.2-1c2.1-0.3,4.1-0.8,6.1-1.1c2-0.4,4.1-0.9,6.1-1.3c2-0.5,4-1,6.1-1.5c2-0.5,4-1.1,6-1.7l6-1.9l5.9-2l5.9-2.2
			l5.8-2.4c3.9-1.6,7.7-3.3,11.4-5.2c7.6-3.6,14.9-7.7,22.1-12c3.6-2.2,7.2-4.4,10.7-6.7c3.5-2.3,7-4.7,10.5-7.1
			c6.9-4.8,13.7-9.9,20.4-15.1c6.7-5.2,13.3-10.6,19.9-16l0.7,4.4l0,0l-29.6-12l-4.3-1.8l3.8-2.7l0,0l-1.5-2.1l26.5-16.1l1.4,4.7
			l0,0c-5.4-0.2-10.8-0.9-16-2.4c-5.2-1.5-10.3-3.9-14.8-7.2c-4.5-3.3-8.2-7.5-11.1-12.1c-2.9-4.7-5.1-9.7-6.6-14.8
			c-1.6-5.1-2.7-10.4-3.4-15.6c-0.8-5.3-1.2-10.5-1.5-15.8c-0.6-10.5-0.5-21-0.3-31.4l0-1.9l2-0.5l0,0c2.8-1.5,5.2-3.5,7.6-5.8
			c2.4-2.3,4.7-5,6.7-7.8c4.1-5.8,7.5-12.2,10.6-18.8c3.1-6.6,5.8-13.4,8.3-20.3c2.5-6.9,4.7-13.9,6.6-21c2-7.1,3.7-14.3,5.2-21.5
			c1.5-7.2,2.7-14.5,3.6-21.8c0.9-7.3,1.5-14.6,1.5-21.9c0-7.3-0.5-14.6-2.3-21.4c-0.9-3.4-2.3-6.6-4.3-9c-1-1.2-2.2-2.1-3.5-2.7
			l-0.5-0.2l-0.1,0c0,0,0.2,0.1,0.1,0l-0.2,0l-0.3-0.1l-0.2,0l-0.1,0l-0.2,0c-0.1,0-0.3,0-0.4,0c-0.7,0-1.4,0-2.1,0.1
			c-1.5,0.3-3.1,0.9-4.6,1.6c-1.6,0.7-3.1,1.6-4.6,2.6c-3,1.9-5.9,4.1-8.8,6.5c-5.7,4.6-11.1,9.7-16.5,14.8l-16.1,15.5
			c-5.4,5.1-10.9,10.2-16.8,15c-2.9,2.3-5.6,4.6-8.2,7.2c-2.6,2.5-5.1,5.2-7.4,8c-4.6,5.6-8.7,11.7-12.3,18.1
			c-1.8,3.2-3.4,6.5-4.8,9.8c-0.7,1.7-1.4,3.3-1.9,5c-0.3,0.8-0.5,1.7-0.8,2.5c-0.1,0.4-0.2,0.8-0.3,1.2c-0.1,0.4-0.1,0.7-0.1,0.9
			l0,0l-5.2-0.1l1.7-35.9l3.7,2.5L234,98l-3.7,1.7v-4l0-33.8l4.2,2.1l-52.7,39.6l-2.6,1.9l-1.3-2.9l-11.4-24.7l4.8-0.2l-13.6,38.9
			l-3.6,10.5l-1.4-11.3l0,0c0-0.2,0-0.5-0.1-0.9c-0.1-0.4-0.2-0.8-0.3-1.2c-0.2-0.8-0.5-1.7-0.7-2.5c-0.6-1.7-1.2-3.4-1.9-5
			c-1.4-3.3-3-6.6-4.8-9.8c-3.5-6.4-7.6-12.5-12.2-18.1c-4.6-5.7-9.8-10.7-15.5-15.3c-5.9-4.8-11.3-9.9-16.7-15.1l-16-15.5
			c-5.4-5.1-10.8-10.2-16.4-14.8C64.9,15.2,62,13,59,11.1c-1.5-1-3-1.9-4.6-2.6c-1.5-0.8-3.1-1.4-4.6-1.7c-0.7-0.1-1.5-0.2-2.1-0.2
			c-0.3,0-0.6,0.1-0.9,0.1c-0.1,0-0.3,0.1-0.4,0.1l-0.6,0.2l-0.4,0.2l-0.5,0.3C44.6,7.8,44.3,8,44,8.2c-0.6,0.4-1.1,1-1.6,1.6
			c-2,2.4-3.4,5.6-4.3,9c-1.9,6.8-2.4,14.1-2.4,21.4c0,7.3,0.5,14.7,1.4,22c0.8,7.3,2.1,14.6,3.5,21.8c1.4,7.2,3.2,14.4,5.1,21.5
			c1.9,7.1,4.1,14.1,6.5,21.1c2.5,6.9,5.1,13.7,8.2,20.4c3.1,6.6,6.5,13,10.6,18.8c2,2.9,4.3,5.5,6.7,7.9c2.4,2.4,4.8,4.4,7.6,5.8
			l0,0l2,0.5l0,1.9c0.2,10.4,0.2,20.9-0.4,31.4c-0.3,5.3-0.8,10.5-1.6,15.8c-0.8,5.2-1.9,10.5-3.5,15.6c-1.6,5.1-3.8,10.2-6.7,14.8
			c-2.9,4.6-6.7,8.8-11.2,12.1c-4.5,3.3-9.6,5.6-14.8,7.1c-5.3,1.5-10.7,2.2-16,2.4l0,0l1.4-4.7l26.5,16.2l-1.5,2.1l0,0l3.8,2.8
			l-4.3,1.7L29,311.1l0,0l0.8-4.3c6.5,5.5,13.1,10.8,19.8,16.1C56.2,328,63,333.1,69.9,338c3.5,2.4,6.9,4.8,10.5,7.1
			c3.5,2.3,7.1,4.6,10.7,6.7c7.2,4.3,14.6,8.4,22.1,12.1c3.8,1.8,7.6,3.6,11.4,5.2l5.8,2.4l5.9,2.2l5.9,2.1l6,1.9c2,0.6,4,1.2,6,1.7
			c2,0.5,4,1,6.1,1.5c2,0.4,4.1,0.9,6.1,1.3c2,0.4,4.1,0.8,6.1,1.2c2.1,0.3,4.1,0.7,6.2,1c2.1,0.3,4.1,0.6,6.2,0.8
			c2.1,0.2,4.1,0.4,6.2,0.6c2.1,0.1,4.2,0.3,6.2,0.4l6.3,0.3L209.8,386.6L209.8,386.6z M209.8,396.8l-6.5-0.1l-6.5-0.3
			c-2.2-0.1-4.4-0.3-6.5-0.5c-2.2-0.2-4.3-0.4-6.5-0.7c-2.2-0.2-4.3-0.6-6.5-0.9c-2.2-0.3-4.3-0.7-6.5-1.1c-2.2-0.4-4.3-0.8-6.4-1.3
			c-2.1-0.4-4.3-1-6.4-1.5c-2.1-0.5-4.2-1.1-6.3-1.7c-2.1-0.6-4.2-1.2-6.3-1.9l-6.2-2l-6.2-2.2l-6.1-2.4c-2-0.9-4-1.7-6-2.6
			c-4-1.8-7.9-3.7-11.7-5.7c-3.9-2-7.7-4.1-11.4-6.3c-3.8-2.2-7.5-4.4-11.1-6.8c-3.6-2.3-7.2-4.8-10.7-7.3c-3.5-2.5-7-5-10.4-7.6
			c-3.4-2.6-6.8-5.3-10.1-8c-3.3-2.7-6.6-5.5-9.9-8.3c-3.3-2.8-6.5-5.7-9.7-8.5c-3.2-2.9-6.3-5.8-9.4-8.7l-3.1-2.9l3.9-1.4l0,0
			l29.7-11.9l-0.6,4.5l0,0l-1.5,2.1l-23.4-20.4l-5.7-5l7.1,0.3l0,0c5-0.2,10-0.8,14.8-2.2c4.8-1.3,9.3-3.4,13.2-6.3
			c3.9-2.9,7.3-6.5,9.9-10.7c2.6-4.2,4.6-8.8,6.1-13.6c1.5-4.8,2.6-9.8,3.3-14.8c0.8-5,1.2-10.2,1.5-15.3c0.6-10.3,0.5-20.6,0.4-31
			l2,2.5l0,0c-2.2-0.2-4.4-0.9-6.3-1.8c-1.9-1-3.7-2.2-5.2-3.5c-3.1-2.7-5.6-5.8-7.9-9c-4.5-6.4-8-13.2-11.2-20.1
			c-3.1-6.9-5.8-14-8.1-21.2c-2.3-7.2-4.4-14.4-6.2-21.7c-3.6-14.6-6.2-29.4-7.7-44.4c-0.7-7.5-1.2-15-1.1-22.6
			c0.1-3.8,0.2-7.6,0.7-11.4c0.4-3.8,1-7.6,2.1-11.4c1.1-3.8,2.6-7.6,5.4-10.9c0.7-0.8,1.5-1.6,2.4-2.3c0.4-0.3,0.9-0.7,1.4-0.9
			c0.3-0.1,0.5-0.3,0.8-0.4L44,2.4l0.7-0.3C45,2,45.3,2,45.6,1.9c0.6-0.1,1.2-0.2,1.8-0.3c1.2-0.1,2.3,0,3.4,0.3
			C53,2.3,54.9,3.1,56.7,4c1.8,0.9,3.5,1.9,5.1,2.9C65,9,68,11.4,70.9,13.8c5.8,4.8,11.3,10,16.6,15.1l16,15.5
			c5.4,5.1,10.8,10.2,16.4,14.8c6,4.7,11.4,10.1,16.3,15.9c4.8,5.9,9.1,12.1,12.8,18.8c1.9,3.3,3.5,6.7,5.1,10.2
			c0.8,1.8,1.5,3.5,2.1,5.4c0.3,0.9,0.6,1.9,0.9,2.8c0.1,0.5,0.3,1,0.4,1.5c0.1,0.5,0.2,1.1,0.2,1.9l0,0l-5-0.9L166.3,76l2.1-6.1
			l2.7,5.8l11.4,24.7l-3.9-1l52.7-39.6l4.2-3.1v5.2l0,33.8l-3.7-2.4l34.4-15.6l3.9-1.8l-0.2,4.2l-1.7,35.9L263,116l0,0
			c0-0.7,0.1-1.3,0.2-1.9c0.1-0.5,0.2-1,0.4-1.5c0.3-1,0.6-1.9,0.9-2.8c0.6-1.8,1.4-3.6,2.1-5.4c1.5-3.5,3.2-6.9,5.1-10.2
			c3.7-6.6,8-12.9,12.9-18.7c2.4-2.9,5-5.7,7.7-8.4c2.7-2.7,5.7-5.2,8.6-7.5c5.7-4.6,11.1-9.6,16.5-14.7l16.1-15.5
			c5.4-5.2,10.9-10.3,16.7-15.1c2.9-2.4,5.9-4.7,9.2-6.8c1.6-1,3.3-2.1,5.1-2.9c1.8-0.9,3.7-1.6,5.9-2.1c1.1-0.2,2.2-0.3,3.4-0.2
			c0.3,0,0.6,0,0.9,0.1l0.5,0.1c0.2,0,0.3,0.1,0.4,0.1l0.3,0.1l0.2,0l0.2,0.1l0.1,0l0.8,0.3c2.1,0.9,3.9,2.4,5.3,4
			c2.8,3.3,4.3,7.2,5.4,10.9c1.1,3.8,1.7,7.6,2.1,11.4c0.4,3.8,0.6,7.6,0.6,11.4c0.1,7.6-0.4,15.1-1.2,22.6
			c-1.5,15-4.2,29.8-7.9,44.4c-1.8,7.3-3.9,14.5-6.3,21.7c-2.4,7.2-5.1,14.2-8.2,21.2c-3.1,6.9-6.7,13.7-11.2,20.1
			c-2.3,3.2-4.8,6.3-7.9,9c-1.6,1.3-3.3,2.5-5.2,3.5c-1.9,0.9-4.1,1.6-6.3,1.7l0,0l2-2.5c-0.2,10.4-0.3,20.8,0.3,31
			c0.3,5.1,0.7,10.3,1.5,15.3c0.7,5,1.8,10,3.3,14.8c1.5,4.8,3.5,9.4,6.1,13.6c2.6,4.2,5.9,7.8,9.8,10.7c3.9,2.9,8.4,5,13.2,6.3
			c4.8,1.4,9.8,2,14.8,2.2l0,0l7.1-0.2l-5.7,4.9l-23.5,20.3l-1.5-2.1l0,0l-0.5-4.5l29.6,12l0,0l3.9,1.4l-3.1,2.9
			c-3.1,2.9-6.3,5.8-9.5,8.7c-3.2,2.9-6.4,5.7-9.7,8.5c-3.3,2.8-6.6,5.5-9.9,8.2c-3.3,2.7-6.7,5.4-10.2,8c-3.4,2.6-6.9,5.1-10.5,7.6
			c-3.5,2.5-7.1,4.9-10.8,7.2c-3.6,2.3-7.3,4.6-11.1,6.7c-3.8,2.2-7.6,4.2-11.4,6.2c-3.9,2-7.8,3.9-11.8,5.6c-2,0.9-4,1.7-6,2.6
			l-6.1,2.4l-6.2,2.2l-6.2,2c-2.1,0.6-4.2,1.2-6.3,1.8c-2.1,0.5-4.2,1.1-6.3,1.6c-2.1,0.5-4.3,1-6.4,1.4c-2.1,0.4-4.3,0.9-6.4,1.2
			c-2.2,0.3-4.3,0.7-6.5,1c-2.2,0.3-4.3,0.6-6.5,0.8c-2.2,0.2-4.3,0.5-6.5,0.6c-2.2,0.1-4.3,0.3-6.5,0.5l-6.6,0.3L209.8,396.8
			L209.8,396.8z"/>
	</g>
	<path fill="#FFFFFF" d="M320.3,313.2l20.8,4.5c0,0-23.4,38-49.9,58.6c-0.1,0-0.1,0-0.1,0.1H291c-24.8,9.9-51.4,15.4-81.2,15.3
		c-34.1,0-64-7.4-91.8-20.3C87.7,346.7,77.8,319,77.8,319l19.9-5.8l-20.4-10.6c0,0,91.8-39.5,105.6-65.2l3.7,8.3l15.1-20.1l8.3,11.8
		l9.7-8.6l12.3,17.6l5.2-8.9c0,0,55.7,55.9,103.9,65.2L320.3,313.2z"/>
	<path fill="#B5A264" d="M341.1,317.7l-20.8-4.5l20.8-10.6c-58.2-8.6-103.9-65.2-103.9-65.2l-5.2,8.9l-12.3-17.6l-9.7,8.6l-8.3-11.8
		l-15.1,20.1l-3.7-8.3C169.1,263,77.3,302.5,77.3,302.5l20.4,10.6l-19.9,5.8c0,0,9.9,27.7,40.3,52.4c-31.7-14.7-60.7-36.5-90.1-62.7
		l29.7-11.9l-25-18.3c50.6-1.7,52.5-48.3,51.8-96.5C48,173.2,13.6,15.2,45.7,4.4c14.6-4.9,49.7,38.3,73.7,57.3
		c24.1,19.2,35.8,48.8,35.8,54l13.6-38.9l11.4,24.7l52.8-39.6l0,33.8l34.4-15.6l-1.6,35.3c0.7-6.4,12.5-34.8,35.9-53.3
		c24.1-19,59.4-62,74-57c31.9,10.9-3.1,168.8-39.6,177.3c-0.9,48.2,0.8,94.8,51.4,96.8l-25,18.2l29.7,12
		c-32.8,28.9-64.9,52.5-100.8,66.9C317.7,355.7,341.1,317.7,341.1,317.7z"/>
	<g>
		<g>
			<path fill="#211F1A" d="M273.9,210.1c0,17.9-5.5,32.5-12.3,32.5c-6.8,0-12.3-14.5-12.3-32.5s5.5-32.5,12.3-32.5
				C268.4,177.6,273.9,192.1,273.9,210.1z"/>
		</g>
		<g>
			<path fill="#211F1A" d="M168.9,210.1c0,17.9-5.5,32.5-12.3,32.5c-6.8,0-12.3-14.5-12.3-32.5s5.5-32.5,12.3-32.5
				C163.4,177.6,168.9,192.1,168.9,210.1z"/>
		</g>
	</g>
	<g>
		<path fill="#FFFFFF" d="M293.5,146.4c-4.6,9.3-20,11.2-34.5,4.1c-14.5-7.1-22.5-20.4-18-29.7c4.6-9.3,20-11.2,34.5-4.1
			C290,123.7,298.1,137,293.5,146.4z"/>
		<path fill="#FFFFFF" d="M177.5,136.9c2.5,10.1-8.1,21.4-23.7,25.3c-15.6,3.9-30.3-1.1-32.9-11.2c-2.5-10.1,8.1-21.4,23.7-25.3
			C160.3,121.8,175,126.8,177.5,136.9z"/>
	</g>
	<g>
		<path fill="#494435" d="M46.5,19.9c0,0,0.1,0.6,0.1,1.7c0,0.3,0,0.6,0.1,0.9c0.1,0.3,0.1,0.7,0.2,1c0.1,0.4,0.2,0.8,0.2,1.2
			c0.1,0.4,0.3,0.9,0.4,1.4c0.1,0.5,0.3,1,0.4,1.5c0.2,0.5,0.4,1.1,0.6,1.7c0.4,1.2,1,2.4,1.5,3.7c1.2,2.6,2.7,5.5,4.5,8.6
			c1.8,3.1,3.9,6.4,6.2,9.8c2.3,3.4,4.8,7,7.5,10.6c5.3,7.3,11.3,14.8,17.4,22.3c3,3.8,6,7.5,9,11.2c3,3.7,5.9,7.4,8.6,11.2
			c1.4,1.9,2.6,3.7,3.8,5.7c0.3,0.5,0.6,1,0.8,1.5l0.4,0.8l0.2,0.4l0.1,0.2l0.1,0.3l0.3,0.8c0.1,0.2,0.2,0.5,0.3,0.8
			c0.2,0.6,0.3,1.2,0.4,1.8c0.9,4.6,0.3,8.9-0.4,12.5c-0.7,3.7-1.7,6.9-2.2,9.6c-0.6,2.8-0.8,5.1-0.5,6.7c0.2,1.6,0.9,2.5,1.4,3.2
			c0.2,0.3,0.5,0.5,0.6,0.7c0.2,0.1,0.2,0.2,0.2,0.2l0.2,0.2c1,1,1.1,2.6,0.1,3.7c-1,1-2.6,1.1-3.7,0.1c0,0-0.1-0.1-0.4-0.4
			c-0.3-0.3-0.7-0.6-1.1-1.2c-0.9-1.1-2.1-3.2-2.4-5.7c-0.3-2.6,0.1-5.4,0.7-8.4c0.7-3,1.6-6.2,2.4-9.6c0.7-3.4,1.2-7.1,0.6-10.7
			c-0.1-0.5-0.2-0.9-0.3-1.3c0-0.2-0.1-0.4-0.2-0.7l-0.2-0.8l0-0.1l0,0c0-0.1,0,0.1,0,0l-0.1-0.2l-0.1-0.3l-0.3-0.6
			c-0.2-0.4-0.5-0.9-0.7-1.3c-1-1.8-2.2-3.6-3.5-5.4c-2.5-3.7-5.4-7.4-8.2-11.1c-2.9-3.8-5.9-7.6-8.8-11.4
			c-5.9-7.6-11.8-15.3-17.1-22.7c-2.6-3.7-5.1-7.3-7.4-10.8c-2.3-3.5-4.3-6.9-6.1-10.1c-1.8-3.2-3.3-6.2-4.5-9
			c-0.6-1.4-1.1-2.7-1.5-3.9c-0.2-0.6-0.4-1.2-0.6-1.8c-0.2-0.6-0.3-1.1-0.5-1.7c-0.1-0.5-0.3-1-0.4-1.5c-0.1-0.5-0.2-1-0.2-1.4
			c-0.1-0.4-0.1-0.8-0.2-1.2c-0.1-0.4-0.1-0.7-0.1-1c-0.1-1.1-0.1-1.7-0.1-1.7c0-0.7,0.5-1.3,1.2-1.4C45.8,18.7,46.5,19.2,46.5,19.9
			L46.5,19.9z"/>
	</g>
	<g>
		<path fill="#494435" d="M375.7,20.1c0,0,0,0.6-0.1,1.7c0,0.3,0,0.6-0.1,1c-0.1,0.4-0.1,0.8-0.2,1.2c-0.1,0.4-0.2,0.9-0.2,1.4
			c-0.1,0.5-0.3,1-0.4,1.5c-0.1,0.5-0.3,1.1-0.5,1.7c-0.2,0.6-0.4,1.2-0.6,1.8c-0.4,1.3-1,2.5-1.5,3.9c-1.2,2.7-2.7,5.8-4.5,9
			c-1.8,3.2-3.8,6.6-6.1,10.1c-2.3,3.5-4.8,7.1-7.4,10.8c-5.3,7.4-11.2,15.1-17.1,22.7c-3,3.8-5.9,7.6-8.8,11.4
			c-2.9,3.8-5.7,7.5-8.2,11.1c-1.3,1.8-2.5,3.6-3.5,5.4c-0.2,0.4-0.5,0.9-0.7,1.3l-0.3,0.6l-0.1,0.3l-0.1,0.2c0,0,0-0.1,0,0l0,0
			l0,0.1l-0.2,0.8c-0.1,0.3-0.2,0.5-0.2,0.7c-0.1,0.4-0.2,0.8-0.3,1.3c-0.7,3.6-0.2,7.3,0.6,10.7c0.7,3.4,1.7,6.6,2.4,9.6
			c0.7,3,1.1,5.8,0.7,8.4c-0.3,2.6-1.5,4.6-2.4,5.7c-0.5,0.6-0.9,1-1.1,1.2c-0.3,0.3-0.4,0.4-0.4,0.4c-1,1-2.7,0.9-3.7-0.1
			c-1-1-0.9-2.7,0.1-3.7l0.2-0.2c0,0,0.1-0.1,0.2-0.2c0.2-0.1,0.4-0.3,0.6-0.7c0.5-0.6,1.1-1.5,1.4-3.2c0.3-1.6,0-3.9-0.5-6.7
			c-0.6-2.8-1.5-6-2.2-9.6c-0.7-3.7-1.3-7.9-0.4-12.5c0.1-0.6,0.3-1.2,0.4-1.8c0.1-0.3,0.2-0.6,0.3-0.8l0.3-0.8l0.1-0.3l0.1-0.2
			l0.2-0.4l0.4-0.8c0.3-0.5,0.6-1,0.8-1.5c1.2-2,2.4-3.9,3.8-5.7c2.7-3.7,5.6-7.4,8.6-11.2c3-3.7,6-7.5,9-11.2
			c6-7.5,12-15.1,17.4-22.3c2.7-3.6,5.2-7.2,7.5-10.6c2.3-3.4,4.4-6.7,6.2-9.8c1.8-3.1,3.3-6,4.5-8.6c0.6-1.3,1.1-2.6,1.5-3.7
			c0.2-0.6,0.4-1.1,0.6-1.7c0.2-0.5,0.3-1.1,0.4-1.5c0.1-0.5,0.3-1,0.4-1.4c0.1-0.4,0.2-0.8,0.2-1.2c0.1-0.4,0.1-0.7,0.2-1
			c0.1-0.3,0.1-0.7,0.1-0.9c0.1-1.1,0.1-1.7,0.1-1.7l0,0c0.1-0.7,0.7-1.2,1.4-1.2C375.3,18.8,375.8,19.4,375.7,20.1z"/>
	</g>
	<g>
		<g>
			<path fill="#211F1A" d="M163.3,255c-7.3,0-13.2,5.9-13.2,13.2v7.2c0,7.3,5.4,15.8,12,18.9l35.1,16.6c6.6,3.1,17.3,3.1,23.9,0
				l35.1-16.6c6.6-3.1,12-11.6,12-18.9v-7.2c0-7.3-5.9-13.2-13.2-13.2H163.3z"/>
		</g>
		<g>
			<path fill="#211F1A" d="M211.7,308.6l1.3,36.3l-2.1-3.4l36.5,21.1l-2.9,0.3l29.1-27.1c2.1-2,5.4-1.8,7.4,0.3s1.8,5.4-0.3,7.4
				c-0.2,0.1-0.4,0.3-0.5,0.4l-32.4,23.1l-1.4,1L245,367l-37.7-18.8l-2.1-1.1l0.1-2.4l1.3-36.3c0.1-1.4,1.3-2.6,2.7-2.5
				C210.6,306.1,211.6,307.2,211.7,308.6z"/>
		</g>
		<g>
			<path fill="#211F1A" d="M210.9,348.3L173.2,367l-1.5,0.7l-1.4-1L138,343.7c-2.3-1.7-2.9-4.9-1.2-7.3c1.7-2.3,4.9-2.9,7.3-1.2
				c0.2,0.1,0.4,0.3,0.5,0.4l29.1,27.1l-2.9-0.3l36.5-21.1c1.9-1.1,4.2-0.4,5.3,1.4c1.1,1.9,0.4,4.2-1.4,5.3
				C211.1,348.2,211,348.2,210.9,348.3z"/>
		</g>
	</g>
</g>
<path fill="none" stroke="#000000" stroke-miterlimit="10" d="M265.6,58.2"/>
</svg>
